<?xml version="1.0" encoding="us-ascii" standalone="no"?><svg xmlns="http://www.w3.org/2000/svg" xmlns:xlink="http://www.w3.org/1999/xlink" contentStyleType="text/css" height="940px" preserveAspectRatio="none" style="width:1155px;height:940px;background:#FFFFFF;" version="1.1" viewBox="0 0 1155 940" width="1155px" zoomAndPan="magnify"><defs/><g><!--class ArgParser--><g id="elem_ArgParser"><rect codeLine="4" fill="#F1F1F1" height="64.4883" id="ArgParser" rx="2.5" ry="2.5" style="stroke:#181818;stroke-width:0.5;" width="263" x="885.5" y="620.61"/><ellipse cx="978.75" cy="636.61" fill="#ADD1B2" rx="11" ry="11" style="stroke:#181818;stroke-width:1.0;"/><path d="M981.2231,642.7531 Q980.6421,643.0519 980.0029,643.2013 Q979.3638,643.3507 978.6582,643.3507 Q976.1514,643.3507 974.8315,641.6989 Q973.5117,640.047 973.5117,636.9259 Q973.5117,633.7965 974.8315,632.1447 Q976.1514,630.4928 978.6582,630.4928 Q979.3638,630.4928 980.0112,630.6422 Q980.6587,630.7916 981.2231,631.0905 L981.2231,633.8131 Q980.5923,633.2321 979.9988,632.9623 Q979.4053,632.6925 978.7744,632.6925 Q977.4297,632.6925 976.7449,633.7592 Q976.0601,634.8258 976.0601,636.9259 Q976.0601,639.0177 976.7449,640.0844 Q977.4297,641.151 978.7744,641.151 Q979.4053,641.151 979.9988,640.8812 Q980.5923,640.6115 981.2231,640.0304 Z " fill="#000000"/><text fill="#000000" font-family="sans-serif" font-size="14" lengthAdjust="spacing" textLength="68" x="999.25" y="641.901">ArgParser</text><line style="stroke:#181818;stroke-width:0.5;" x1="886.5" x2="1147.5" y1="652.61" y2="652.61"/><line style="stroke:#181818;stroke-width:0.5;" x1="886.5" x2="1147.5" y1="660.61" y2="660.61"/><ellipse cx="896.5" cy="674.3541" fill="#84BE84" rx="3" ry="3" style="stroke:#038048;stroke-width:1.0;"/><text fill="#000000" font-family="sans-serif" font-size="14" lengthAdjust="spacing" textLength="237" x="905.5" y="678.1452">parse(argc: int, argv: char*[]): Args</text></g><!--class Automata--><g id="elem_Automata"><rect codeLine="8" fill="#F1F1F1" height="245.8594" id="Automata" rx="2.5" ry="2.5" style="stroke:#181818;stroke-width:0.5;" width="248" x="603" y="529.92"/><ellipse cx="689.25" cy="545.92" fill="#ADD1B2" rx="11" ry="11" style="stroke:#181818;stroke-width:1.0;"/><path d="M691.7231,552.0631 Q691.1421,552.3619 690.5029,552.5113 Q689.8638,552.6607 689.1582,552.6607 Q686.6514,552.6607 685.3315,551.0089 Q684.0117,549.357 684.0117,546.2359 Q684.0117,543.1065 685.3315,541.4547 Q686.6514,539.8028 689.1582,539.8028 Q689.8638,539.8028 690.5112,539.9522 Q691.1587,540.1016 691.7231,540.4005 L691.7231,543.1231 Q691.0923,542.5421 690.4988,542.2723 Q689.9053,542.0025 689.2744,542.0025 Q687.9297,542.0025 687.2449,543.0692 Q686.5601,544.1358 686.5601,546.2359 Q686.5601,548.3277 687.2449,549.3944 Q687.9297,550.461 689.2744,550.461 Q689.9053,550.461 690.4988,550.1912 Q691.0923,549.9215 691.7231,549.3404 Z " fill="#000000"/><text fill="#000000" font-family="sans-serif" font-size="14" lengthAdjust="spacing" textLength="67" x="709.75" y="551.211">Automata</text><line style="stroke:#181818;stroke-width:0.5;" x1="604" x2="850" y1="561.92" y2="561.92"/><rect fill="none" height="6" style="stroke:#C82930;stroke-width:1.0;" width="6" x="611" y="572.6641"/><text fill="#000000" font-family="sans-serif" font-size="14" lengthAdjust="spacing" textLength="138" x="623" y="579.4552">postman: IPostman*</text><rect fill="none" height="6" style="stroke:#C82930;stroke-width:1.0;" width="6" x="611" y="589.1524"/><text fill="#000000" font-family="sans-serif" font-size="14" lengthAdjust="spacing" textLength="75" x="623" y="595.9434">state: State</text><rect fill="none" height="6" style="stroke:#C82930;stroke-width:1.0;" width="6" x="611" y="605.6407"/><text fill="#000000" font-family="sans-serif" font-size="14" lengthAdjust="spacing" textLength="85" x="623" y="612.4317">ret_code: int</text><line style="stroke:#181818;stroke-width:0.5;" x1="604" x2="850" y1="619.3848" y2="619.3848"/><ellipse cx="614" cy="633.129" fill="#84BE84" rx="3" ry="3" style="stroke:#038048;stroke-width:1.0;"/><text fill="#000000" font-family="sans-serif" font-size="14" lengthAdjust="spacing" textLength="147" x="623" y="636.92">Automata(args: Args)</text><ellipse cx="614" cy="649.6173" fill="#84BE84" rx="3" ry="3" style="stroke:#038048;stroke-width:1.0;"/><text fill="#000000" font-family="sans-serif" font-size="14" lengthAdjust="spacing" textLength="86" x="623" y="653.4083">~Automata()</text><ellipse cx="614" cy="666.1055" fill="#84BE84" rx="3" ry="3" style="stroke:#038048;stroke-width:1.0;"/><text fill="#000000" font-family="sans-serif" font-size="14" lengthAdjust="spacing" textLength="222" x="623" y="669.8966">set_state(new_state: State): State</text><ellipse cx="614" cy="682.5938" fill="#84BE84" rx="3" ry="3" style="stroke:#038048;stroke-width:1.0;"/><text fill="#000000" font-family="sans-serif" font-size="14" lengthAdjust="spacing" textLength="97" x="623" y="686.3848">s_start(): State</text><ellipse cx="614" cy="699.0821" fill="#84BE84" rx="3" ry="3" style="stroke:#038048;stroke-width:1.0;"/><text fill="#000000" font-family="sans-serif" font-size="14" lengthAdjust="spacing" textLength="97" x="623" y="702.8731">s_auth(): State</text><ellipse cx="614" cy="715.5704" fill="#84BE84" rx="3" ry="3" style="stroke:#038048;stroke-width:1.0;"/><text fill="#000000" font-family="sans-serif" font-size="14" lengthAdjust="spacing" textLength="101" x="623" y="719.3614">s_open(): State</text><ellipse cx="614" cy="732.0587" fill="#84BE84" rx="3" ry="3" style="stroke:#038048;stroke-width:1.0;"/><text fill="#000000" font-family="sans-serif" font-size="14" lengthAdjust="spacing" textLength="101" x="623" y="735.8497">s_error(): State</text><ellipse cx="614" cy="748.547" fill="#84BE84" rx="3" ry="3" style="stroke:#038048;stroke-width:1.0;"/><text fill="#000000" font-family="sans-serif" font-size="14" lengthAdjust="spacing" textLength="92" x="623" y="752.338">s_end(): State</text><ellipse cx="614" cy="765.0352" fill="#84BE84" rx="3" ry="3" style="stroke:#038048;stroke-width:1.0;"/><text fill="#000000" font-family="sans-serif" font-size="14" lengthAdjust="spacing" textLength="60" x="623" y="768.8263">run(): int</text></g><!--class InputParser--><g id="elem_InputParser"><rect codeLine="23" fill="#F1F1F1" height="64.4883" id="InputParser" rx="2.5" ry="2.5" style="stroke:#181818;stroke-width:0.5;" width="196" x="190" y="375.88"/><ellipse cx="244.25" cy="391.88" fill="#ADD1B2" rx="11" ry="11" style="stroke:#181818;stroke-width:1.0;"/><path d="M246.7231,398.0231 Q246.1421,398.3219 245.5029,398.4713 Q244.8638,398.6207 244.1582,398.6207 Q241.6514,398.6207 240.3315,396.9689 Q239.0117,395.317 239.0117,392.1959 Q239.0117,389.0665 240.3315,387.4147 Q241.6514,385.7628 244.1582,385.7628 Q244.8638,385.7628 245.5112,385.9122 Q246.1587,386.0616 246.7231,386.3605 L246.7231,389.0831 Q246.0923,388.5021 245.4988,388.2323 Q244.9053,387.9625 244.2744,387.9625 Q242.9297,387.9625 242.2449,389.0292 Q241.5601,390.0958 241.5601,392.1959 Q241.5601,394.2877 242.2449,395.3544 Q242.9297,396.421 244.2744,396.421 Q244.9053,396.421 245.4988,396.1512 Q246.0923,395.8815 246.7231,395.3004 Z " fill="#000000"/><text fill="#000000" font-family="sans-serif" font-size="14" lengthAdjust="spacing" textLength="79" x="264.75" y="397.171">InputParser</text><line style="stroke:#181818;stroke-width:0.5;" x1="191" x2="385" y1="407.88" y2="407.88"/><line style="stroke:#181818;stroke-width:0.5;" x1="191" x2="385" y1="415.88" y2="415.88"/><ellipse cx="201" cy="429.6241" fill="#84BE84" rx="3" ry="3" style="stroke:#038048;stroke-width:1.0;"/><text fill="#000000" font-family="sans-serif" font-size="14" lengthAdjust="spacing" textLength="170" x="210" y="433.4152">parse_input(): Command</text></g><!--class IPostman--><g id="elem_IPostman"><rect codeLine="27" fill="#F1F1F1" height="295.3242" id="IPostman" rx="2.5" ry="2.5" style="stroke:#181818;stroke-width:0.5;" width="515" x="181.5" y="7"/><ellipse cx="403.25" cy="23" fill="#B4A7E5" rx="11" ry="11" style="stroke:#181818;stroke-width:1.0;"/><path d="M399.6777,19.2651 L399.6777,17.1069 L407.0571,17.1069 L407.0571,19.2651 L404.5918,19.2651 L404.5918,27.3418 L407.0571,27.3418 L407.0571,29.5 L399.6777,29.5 L399.6777,27.3418 L402.1431,27.3418 L402.1431,19.2651 Z " fill="#000000"/><text fill="#000000" font-family="sans-serif" font-size="14" font-style="italic" lengthAdjust="spacing" textLength="63" x="423.75" y="28.291">IPostman</text><line style="stroke:#181818;stroke-width:0.5;" x1="182.5" x2="695.5" y1="39" y2="39"/><line style="stroke:#181818;stroke-width:0.5;" x1="182.5" x2="695.5" y1="47" y2="47"/><ellipse cx="192.5" cy="60.7441" fill="#84BE84" rx="3" ry="3" style="stroke:#038048;stroke-width:1.0;"/><text fill="#000000" font-family="sans-serif" font-size="14" lengthAdjust="spacing" textLength="153" x="201.5" y="64.5352">get_client_socket(): int</text><ellipse cx="192.5" cy="77.2324" fill="#84BE84" rx="3" ry="3" style="stroke:#038048;stroke-width:1.0;"/><text fill="#000000" font-family="sans-serif" font-size="14" lengthAdjust="spacing" textLength="276" x="201.5" y="81.0234">get_server_address(): struct sockaddr_in</text><ellipse cx="192.5" cy="93.7207" fill="#84BE84" rx="3" ry="3" style="stroke:#038048;stroke-width:1.0;"/><text fill="#000000" font-family="sans-serif" font-size="14" lengthAdjust="spacing" textLength="180" x="201.5" y="97.5117">get_display_name(): string</text><ellipse cx="192.5" cy="110.209" fill="#84BE84" rx="3" ry="3" style="stroke:#038048;stroke-width:1.0;"/><text fill="#000000" font-family="sans-serif" font-size="14" lengthAdjust="spacing" textLength="487" x="201.5" y="114">attach_to_server(server_hostname: string, port_number: uint16_t): void</text><ellipse cx="192.5" cy="126.6973" fill="#84BE84" rx="3" ry="3" style="stroke:#038048;stroke-width:1.0;"/><text fill="#000000" font-family="sans-serif" font-size="14" lengthAdjust="spacing" textLength="489" x="201.5" y="130.4883">authorize(username: string, display_name: string, password: string): int</text><ellipse cx="192.5" cy="143.1855" fill="#84BE84" rx="3" ry="3" style="stroke:#038048;stroke-width:1.0;"/><text fill="#000000" font-family="sans-serif" font-size="14" lengthAdjust="spacing" textLength="328" x="201.5" y="146.9766">join(channel_id: string, DisplayName: string): int</text><ellipse cx="192.5" cy="159.6738" fill="#84BE84" rx="3" ry="3" style="stroke:#038048;stroke-width:1.0;"/><text fill="#000000" font-family="sans-serif" font-size="14" lengthAdjust="spacing" textLength="419" x="201.5" y="163.4648">message(display_name: string, message_contents: string): int</text><ellipse cx="192.5" cy="176.1621" fill="#84BE84" rx="3" ry="3" style="stroke:#038048;stroke-width:1.0;"/><text fill="#000000" font-family="sans-serif" font-size="14" lengthAdjust="spacing" textLength="394" x="201.5" y="179.9531">error(display_name: string, message_contents: string): int</text><ellipse cx="192.5" cy="192.6504" fill="#84BE84" rx="3" ry="3" style="stroke:#038048;stroke-width:1.0;"/><text fill="#000000" font-family="sans-serif" font-size="14" lengthAdjust="spacing" textLength="60" x="201.5" y="196.4414">bye(): int</text><ellipse cx="192.5" cy="209.1387" fill="#84BE84" rx="3" ry="3" style="stroke:#038048;stroke-width:1.0;"/><text fill="#000000" font-family="sans-serif" font-size="14" lengthAdjust="spacing" textLength="219" x="201.5" y="212.9297">poll_for_messages(): PollResults</text><ellipse cx="192.5" cy="225.627" fill="#84BE84" rx="3" ry="3" style="stroke:#038048;stroke-width:1.0;"/><text fill="#000000" font-family="sans-serif" font-size="14" lengthAdjust="spacing" textLength="125" x="201.5" y="229.418">receive(): Message</text><ellipse cx="192.5" cy="242.1152" fill="#84BE84" rx="3" ry="3" style="stroke:#038048;stroke-width:1.0;"/><text fill="#000000" font-family="sans-serif" font-size="14" lengthAdjust="spacing" textLength="452" x="201.5" y="245.9063">allow_client_commands(messages: vector&lt;CommandType&gt;): void</text><ellipse cx="192.5" cy="258.6035" fill="#84BE84" rx="3" ry="3" style="stroke:#038048;stroke-width:1.0;"/><text fill="#000000" font-family="sans-serif" font-size="14" lengthAdjust="spacing" textLength="255" x="201.5" y="262.3945">handle_server_message(): PollResults</text><ellipse cx="192.5" cy="275.0918" fill="#84BE84" rx="3" ry="3" style="stroke:#038048;stroke-width:1.0;"/><text fill="#000000" font-family="sans-serif" font-size="14" lengthAdjust="spacing" textLength="251" x="201.5" y="278.8828">handle_user_command(): PollResults</text><ellipse cx="192.5" cy="291.5801" fill="#84BE84" rx="3" ry="3" style="stroke:#038048;stroke-width:1.0;"/><text fill="#000000" font-family="sans-serif" font-size="14" lengthAdjust="spacing" textLength="345" x="201.5" y="295.3711">data_to_message(data: vector&lt;uint8_t&gt;): Message</text></g><!--class TCPPostman--><g id="elem_TCPPostman"><rect codeLine="45" fill="#F1F1F1" height="130.4414" id="TCPPostman" rx="2.5" ry="2.5" style="stroke:#181818;stroke-width:0.5;" width="260" x="7" y="587.63"/><ellipse cx="89.75" cy="603.63" fill="#ADD1B2" rx="11" ry="11" style="stroke:#181818;stroke-width:1.0;"/><path d="M92.2231,609.7731 Q91.6421,610.0719 91.0029,610.2213 Q90.3638,610.3707 89.6582,610.3707 Q87.1514,610.3707 85.8315,608.7189 Q84.5117,607.067 84.5117,603.9459 Q84.5117,600.8165 85.8315,599.1647 Q87.1514,597.5128 89.6582,597.5128 Q90.3638,597.5128 91.0112,597.6622 Q91.6587,597.8116 92.2231,598.1105 L92.2231,600.8331 Q91.5923,600.2521 90.9988,599.9823 Q90.4053,599.7125 89.7744,599.7125 Q88.4297,599.7125 87.7449,600.7792 Q87.0601,601.8458 87.0601,603.9459 Q87.0601,606.0377 87.7449,607.1044 Q88.4297,608.171 89.7744,608.171 Q90.4053,608.171 90.9988,607.9012 Q91.5923,607.6315 92.2231,607.0504 Z " fill="#000000"/><text fill="#000000" font-family="sans-serif" font-size="14" lengthAdjust="spacing" textLength="86" x="110.25" y="608.921">TCPPostman</text><line style="stroke:#181818;stroke-width:0.5;" x1="8" x2="266" y1="619.63" y2="619.63"/><ellipse cx="18" cy="633.3741" fill="none" rx="3" ry="3" style="stroke:#038048;stroke-width:1.0;"/><text fill="#000000" font-family="sans-serif" font-size="14" lengthAdjust="spacing" textLength="174" x="27" y="637.1652">{methods from IPostman}</text><line style="stroke:#181818;stroke-width:0.5;" x1="8" x2="266" y1="644.1183" y2="644.1183"/><ellipse cx="18" cy="657.8624" fill="#84BE84" rx="3" ry="3" style="stroke:#038048;stroke-width:1.0;"/><text fill="#000000" font-family="sans-serif" font-size="14" lengthAdjust="spacing" textLength="234" x="27" y="661.6534">tcp_handle_sigint(signal: int): void</text><ellipse cx="18" cy="674.3507" fill="#84BE84" rx="3" ry="3" style="stroke:#038048;stroke-width:1.0;"/><text fill="#000000" font-family="sans-serif" font-size="14" lengthAdjust="spacing" textLength="166" x="27" y="678.1417">TCPPostman(args: Args)</text><ellipse cx="18" cy="690.839" fill="#84BE84" rx="3" ry="3" style="stroke:#038048;stroke-width:1.0;"/><text fill="#000000" font-family="sans-serif" font-size="14" lengthAdjust="spacing" textLength="105" x="27" y="694.63">~TCPPostman()</text><ellipse cx="18" cy="707.3273" fill="#84BE84" rx="3" ry="3" style="stroke:#038048;stroke-width:1.0;"/><text fill="#000000" font-family="sans-serif" font-size="14" lengthAdjust="spacing" textLength="180" x="27" y="711.1183">get_display_name(): string</text></g><!--class UDPPostman--><g id="elem_UDPPostman"><rect codeLine="53" fill="#F1F1F1" height="179.9063" id="UDPPostman" rx="2.5" ry="2.5" style="stroke:#181818;stroke-width:0.5;" width="266" x="302" y="562.9"/><ellipse cx="387.25" cy="578.9" fill="#ADD1B2" rx="11" ry="11" style="stroke:#181818;stroke-width:1.0;"/><path d="M389.7231,585.0431 Q389.1421,585.3419 388.5029,585.4913 Q387.8638,585.6407 387.1582,585.6407 Q384.6514,585.6407 383.3315,583.9889 Q382.0117,582.337 382.0117,579.2159 Q382.0117,576.0865 383.3315,574.4347 Q384.6514,572.7828 387.1582,572.7828 Q387.8638,572.7828 388.5112,572.9322 Q389.1587,573.0816 389.7231,573.3805 L389.7231,576.1031 Q389.0923,575.5221 388.4988,575.2523 Q387.9053,574.9825 387.2744,574.9825 Q385.9297,574.9825 385.2449,576.0492 Q384.5601,577.1158 384.5601,579.2159 Q384.5601,581.3077 385.2449,582.3744 Q385.9297,583.441 387.2744,583.441 Q387.9053,583.441 388.4988,583.1712 Q389.0923,582.9015 389.7231,582.3204 Z " fill="#000000"/><text fill="#000000" font-family="sans-serif" font-size="14" lengthAdjust="spacing" textLength="87" x="407.75" y="584.191">UDPPostman</text><line style="stroke:#181818;stroke-width:0.5;" x1="303" x2="567" y1="594.9" y2="594.9"/><ellipse cx="313" cy="608.6441" fill="none" rx="3" ry="3" style="stroke:#038048;stroke-width:1.0;"/><text fill="#000000" font-family="sans-serif" font-size="14" lengthAdjust="spacing" textLength="174" x="322" y="612.4352">{methods from IPostman}</text><line style="stroke:#181818;stroke-width:0.5;" x1="303" x2="567" y1="619.3883" y2="619.3883"/><ellipse cx="313" cy="633.1324" fill="#84BE84" rx="3" ry="3" style="stroke:#038048;stroke-width:1.0;"/><text fill="#000000" font-family="sans-serif" font-size="14" lengthAdjust="spacing" textLength="240" x="322" y="636.9234">udp_handle_sigint(signal: int): void</text><ellipse cx="313" cy="649.6207" fill="#84BE84" rx="3" ry="3" style="stroke:#038048;stroke-width:1.0;"/><text fill="#000000" font-family="sans-serif" font-size="14" lengthAdjust="spacing" textLength="167" x="322" y="653.4117">UDPPostman(args: Args)</text><ellipse cx="313" cy="666.109" fill="#84BE84" rx="3" ry="3" style="stroke:#038048;stroke-width:1.0;"/><text fill="#000000" font-family="sans-serif" font-size="14" lengthAdjust="spacing" textLength="106" x="322" y="669.9">~UDPPostman()</text><ellipse cx="313" cy="682.5973" fill="#84BE84" rx="3" ry="3" style="stroke:#038048;stroke-width:1.0;"/><text fill="#000000" font-family="sans-serif" font-size="14" lengthAdjust="spacing" textLength="180" x="322" y="686.3883">get_display_name(): string</text><ellipse cx="313" cy="699.0855" fill="#84BE84" rx="3" ry="3" style="stroke:#038048;stroke-width:1.0;"/><text fill="#000000" font-family="sans-serif" font-size="14" lengthAdjust="spacing" textLength="89" x="322" y="702.8766">confirm(): int</text><ellipse cx="313" cy="715.5738" fill="#84BE84" rx="3" ry="3" style="stroke:#038048;stroke-width:1.0;"/><text fill="#000000" font-family="sans-serif" font-size="14" lengthAdjust="spacing" textLength="209" x="322" y="719.3648">confirm(ref_id: MessageID): int</text><ellipse cx="313" cy="732.0621" fill="#84BE84" rx="3" ry="3" style="stroke:#038048;stroke-width:1.0;"/><text fill="#000000" font-family="sans-serif" font-size="14" lengthAdjust="spacing" textLength="144" x="322" y="735.8531">check_waiters(): bool</text></g><!--class Utils--><g id="elem_Utils"><rect codeLine="64" fill="#F1F1F1" height="80.9766" id="Utils" rx="2.5" ry="2.5" style="stroke:#181818;stroke-width:0.5;" width="211" x="329.5" y="852.78"/><ellipse cx="415.75" cy="868.78" fill="#ADD1B2" rx="11" ry="11" style="stroke:#181818;stroke-width:1.0;"/><path d="M418.2231,874.9231 Q417.6421,875.2219 417.0029,875.3713 Q416.3638,875.5207 415.6582,875.5207 Q413.1514,875.5207 411.8315,873.8689 Q410.5117,872.217 410.5117,869.0959 Q410.5117,865.9665 411.8315,864.3147 Q413.1514,862.6628 415.6582,862.6628 Q416.3638,862.6628 417.0112,862.8122 Q417.6587,862.9616 418.2231,863.2605 L418.2231,865.9831 Q417.5923,865.4021 416.9988,865.1323 Q416.4053,864.8625 415.7744,864.8625 Q414.4297,864.8625 413.7449,865.9292 Q413.0601,866.9958 413.0601,869.0959 Q413.0601,871.1877 413.7449,872.2544 Q414.4297,873.321 415.7744,873.321 Q416.4053,873.321 416.9988,873.0512 Q417.5923,872.7815 418.2231,872.2004 Z " fill="#000000"/><text fill="#000000" font-family="sans-serif" font-size="14" lengthAdjust="spacing" textLength="30" x="436.25" y="874.071">Utils</text><line style="stroke:#181818;stroke-width:0.5;" x1="330.5" x2="539.5" y1="884.78" y2="884.78"/><line style="stroke:#181818;stroke-width:0.5;" x1="330.5" x2="539.5" y1="892.78" y2="892.78"/><ellipse cx="340.5" cy="906.5241" fill="#84BE84" rx="3" ry="3" style="stroke:#038048;stroke-width:1.0;"/><text fill="#000000" font-family="sans-serif" font-size="14" lengthAdjust="spacing" textLength="185" x="349.5" y="910.3152">get_timestamp(): long long</text><ellipse cx="340.5" cy="923.0124" fill="#84BE84" rx="3" ry="3" style="stroke:#038048;stroke-width:1.0;"/><text fill="#000000" font-family="sans-serif" font-size="14" lengthAdjust="spacing" textLength="152" x="349.5" y="926.8034">is_stdin_closed(): bool</text></g><!--class main--><g id="elem_main"><rect codeLine="69" fill="#FFD700" height="89.5977" id="main" rx="2.5" ry="2.5" style="stroke:#000000;stroke-width:0.5;" width="156" x="840" y="363.33"/><ellipse cx="885.75" cy="383.6405" fill="#ADD1B2" rx="11" ry="11" style="stroke:#181818;stroke-width:1.0;"/><path d="M888.2231,389.7836 Q887.6421,390.0824 887.0029,390.2319 Q886.3638,390.3813 885.6582,390.3813 Q883.1514,390.3813 881.8315,388.7294 Q880.5117,387.0776 880.5117,383.9565 Q880.5117,380.8271 881.8315,379.1752 Q883.1514,377.5234 885.6582,377.5234 Q886.3638,377.5234 887.0112,377.6728 Q887.6587,377.8222 888.2231,378.121 L888.2231,380.8437 Q887.5923,380.2626 886.9988,379.9928 Q886.4053,379.7231 885.7744,379.7231 Q884.4297,379.7231 883.7449,380.7897 Q883.0601,381.8564 883.0601,383.9565 Q883.0601,386.0483 883.7449,387.1149 Q884.4297,388.1816 885.7744,388.1816 Q886.4053,388.1816 886.9988,387.9118 Q887.5923,387.642 888.2231,387.061 Z " fill="#000000"/><text fill="#000000" font-family="sans-serif" font-size="12" font-style="italic" lengthAdjust="spacing" textLength="60" x="904.25" y="379.9316">&#171;highlight&#187;</text><text fill="#000000" font-family="sans-serif" font-size="14" lengthAdjust="spacing" textLength="34" x="917.25" y="395.998">main</text><line style="stroke:#000000;stroke-width:0.5;" x1="841" x2="995" y1="403.9511" y2="403.9511"/><text fill="#000000" font-family="sans-serif" font-size="14" lengthAdjust="spacing" textLength="95" x="846" y="421.4863">main function</text><text fill="#000000" font-family="sans-serif" font-size="14" lengthAdjust="spacing" textLength="144" x="846" y="437.9745">starts the application</text><line style="stroke:#000000;stroke-width:0.5;" x1="841" x2="995" y1="444.9277" y2="444.9277"/></g><!--reverse link IPostman to TCPPostman--><g id="link_IPostman_TCPPostman"><path codeLine="82" d="M236.4629,313.7781 C192.7929,347.8781 173,363.33 173,363.33 C173,363.33 155.64,502.43 145.03,587.46 " fill="none" id="IPostman-backto-TCPPostman" style="stroke:#181818;stroke-width:1.0;"/><polygon fill="none" points="250.65,302.7,232.7701,309.0491,240.1556,318.5072,250.65,302.7" style="stroke:#181818;stroke-width:1.0;"/></g><!--reverse link IPostman to UDPPostman--><g id="link_IPostman_UDPPostman"><path codeLine="83" d="M437.6751,320.5194 C436.9951,404.9694 436.3,490.3 435.72,562.59 " fill="none" id="IPostman-backto-UDPPostman" style="stroke:#181818;stroke-width:1.0;"/><polygon fill="none" points="437.82,302.52,431.6753,320.4711,443.6749,320.5677,437.82,302.52" style="stroke:#181818;stroke-width:1.0;"/></g><!--reverse link IPostman to Automata--><g id="link_IPostman_Automata"><path codeLine="84" d="M527.2522,307.7091 C569.2222,380.0091 616.21,460.97 656.05,529.62 " fill="none" id="IPostman-backto-Automata" style="stroke:#181818;stroke-width:1.0;stroke-dasharray:7.0,7.0;"/><polygon fill="#181818" points="524.24,302.52,525.299,312.3118,526.7502,306.8442,532.2177,308.2954,524.24,302.52" style="stroke:#181818;stroke-width:1.0;"/><polygon fill="#000000" points="614.4901,403.9609,616.4887,413.2591,621.5724,410.3085,614.4901,403.9609" style="stroke:#000000;stroke-width:1.0;"/><text fill="#000000" font-family="sans-serif" font-size="13" lengthAdjust="spacing" textLength="29" x="626" y="413.1984">uses</text></g><!--reverse link InputParser to TCPPostman--><g id="link_InputParser_TCPPostman"><path codeLine="85" d="M265.091,445.9549 C242.071,482.9649 206.58,540 177.17,587.29 " fill="none" id="InputParser-backto-TCPPostman" style="stroke:#181818;stroke-width:1.0;stroke-dasharray:7.0,7.0;"/><polygon fill="#181818" points="268.26,440.86,260.11,446.3896,265.6192,445.1057,266.9031,450.6149,268.26,440.86" style="stroke:#181818;stroke-width:1.0;"/><polygon fill="#000000" points="247.6411,487.3297,240.3679,493.4576,245.3588,496.5624,247.6411,487.3297" style="stroke:#000000;stroke-width:1.0;"/><text fill="#000000" font-family="sans-serif" font-size="13" lengthAdjust="spacing" textLength="29" x="254" y="496.4884">uses</text></g><!--reverse link InputParser to UDPPostman--><g id="link_InputParser_UDPPostman"><path codeLine="86" d="M310.3285,445.992 C329.0085,476.832 355.14,519.99 380.94,562.59 " fill="none" id="InputParser-backto-UDPPostman" style="stroke:#181818;stroke-width:1.0;stroke-dasharray:7.0,7.0;"/><polygon fill="#181818" points="307.22,440.86,308.4614,450.6303,309.8104,445.1367,315.3041,446.4857,307.22,440.86" style="stroke:#181818;stroke-width:1.0;"/><polygon fill="#000000" points="342.4099,487.2984,344.5815,496.5577,349.6093,493.5129,342.4099,487.2984" style="stroke:#000000;stroke-width:1.0;"/><text fill="#000000" font-family="sans-serif" font-size="13" lengthAdjust="spacing" textLength="29" x="354" y="496.4884">uses</text></g><!--link Automata to Utils--><g id="link_Automata_Utils"><path codeLine="87" d="M602.7,760.59 C591.92,769.84 585,775.78 585,775.78 C585,775.78 534.3989,815.0799 490.9389,848.8299 " fill="none" id="Automata-to-Utils" style="stroke:#181818;stroke-width:1.0;stroke-dasharray:7.0,7.0;"/><polygon fill="#181818" points="486.2,852.51,495.7617,850.1491,490.1491,849.4433,490.8549,843.8306,486.2,852.51" style="stroke:#181818;stroke-width:1.0;"/><polygon fill="#000000" points="546.0757,817.5337,554.996,814.2353,551.3536,809.622,546.0757,817.5337" style="stroke:#000000;stroke-width:1.0;"/><text fill="#000000" font-family="sans-serif" font-size="13" lengthAdjust="spacing" textLength="29" x="559" y="819.3484">uses</text></g><!--link TCPPostman to Utils--><g id="link_TCPPostman_Utils"><path codeLine="88" d="M215.33,718.39 C250.83,747.64 285,775.78 285,775.78 C285,775.78 335.6011,815.0799 379.0611,848.8299 " fill="none" id="TCPPostman-to-Utils" style="stroke:#181818;stroke-width:1.0;stroke-dasharray:7.0,7.0;"/><polygon fill="#181818" points="383.8,852.51,379.1451,843.8306,379.8509,849.4433,374.2383,850.1491,383.8,852.51" style="stroke:#181818;stroke-width:1.0;"/><polygon fill="#000000" points="351.9107,817.5508,346.6675,809.6161,343.0049,814.2134,351.9107,817.5508" style="stroke:#000000;stroke-width:1.0;"/><text fill="#000000" font-family="sans-serif" font-size="13" lengthAdjust="spacing" textLength="29" x="357" y="819.3484">uses</text></g><!--link UDPPostman to Utils--><g id="link_UDPPostman_Utils"><path codeLine="89" d="M435,742.97 C435,780.67 435,816.66 435,846.48 " fill="none" id="UDPPostman-to-Utils" style="stroke:#181818;stroke-width:1.0;stroke-dasharray:7.0,7.0;"/><polygon fill="#181818" points="435,852.48,439,843.48,435,847.48,431,843.48,435,852.48" style="stroke:#181818;stroke-width:1.0;"/><polygon fill="#000000" points="440,819.4353,442.9389,810.3902,437.0611,810.3902,440,819.4353" style="stroke:#000000;stroke-width:1.0;"/><text fill="#000000" font-family="sans-serif" font-size="13" lengthAdjust="spacing" textLength="29" x="449" y="819.3484">uses</text></g><!--link main to ArgParser--><g id="link_main_ArgParser"><path codeLine="90" d="M936.04,453.36 C955.73,501.63 984.4841,572.1343 1001.8541,614.7243 " fill="none" id="main-to-ArgParser" style="stroke:#181818;stroke-width:1.0;stroke-dasharray:7.0,7.0;"/><polygon fill="#181818" points="1004.12,620.28,1004.425,610.4359,1002.2318,615.6502,997.0174,613.457,1004.12,620.28" style="stroke:#181818;stroke-width:1.0;"/><polygon fill="#000000" points="959.8883,496.205,959.1936,486.7198,953.7511,488.9397,959.8883,496.205" style="stroke:#000000;stroke-width:1.0;"/><text fill="#000000" font-family="sans-serif" font-size="13" lengthAdjust="spacing" textLength="29" x="967" y="496.4884">uses</text></g><!--link main to Automata--><g id="link_main_Automata"><path codeLine="91" d="M883.19,453.36 C866.14,475.04 848.38,497.5945 826.87,524.9345 " fill="none" id="main-to-Automata" style="stroke:#181818;stroke-width:1.0;stroke-dasharray:7.0,7.0;"/><polygon fill="#181818" points="823.16,529.65,831.8686,525.05,826.2516,525.7204,825.5813,520.1034,823.16,529.65" style="stroke:#181818;stroke-width:1.0;"/><polygon fill="#000000" points="858.9081,495.5047,866.811,490.2137,862.1918,486.579,858.9081,495.5047" style="stroke:#000000;stroke-width:1.0;"/><text fill="#000000" font-family="sans-serif" font-size="13" lengthAdjust="spacing" textLength="29" x="871" y="496.4884">uses</text></g><!--SRC=[dLPHQzim47xFhz2Zqow5lOmHIc1j6VHX8spTqnX6aIws5baoafoGTTrltqcoPIKnewpG9lw-k-zEfqzoxKwebXhQ42aKk6CBfDNow1zcCoQfjUI3gTRKM33aUKRmvxhrJmKr5LiIeTmRWb_tIy9gQgw-_vWlVOQTlQJypkc6EjgdBrfjNKFLaZokuxUhY5j77Ip9L_yH4GEkP9f3A1Dh3sA-l8sLvf7vawWUi9WTD0i5Xp9Nd-TLhgtdZ2lEKTgv-WBKBQWB48pHvX9L_0mpNSZrYqdJULHjvoRcMmfF-F1xtU2Gk4_1J31RoY3DRiYf_AYa08Lhrcm7RYYKM2om1rDIpWrOwsdhJCSSyV4UnOfZD1UsbVHOAjf07ojK5Ndg76LrwNIlMVJIDRRauuVeDsWbuqhLDHimIz9XEs_VbGxLzbhmNWk7h8tu1KM7AgVPUG-P9axje0qVa7oTFxLG1VfGAP2bu6FIGvJwd2dbUGrEX5PGJ5ViMRGYZbyvEwKGBV3_-PiZdEmO7a9PRhKf- -ImOMi4lu3jfBEzeO21s8VCJp6kdwgK-Z3uWKN_s6AGmla3SzhSzivwmbE_EjaLd22NC5XccCvK1tsatxoXq6GSnuFf7PCcZS-f3- -CzwLRPSj8v-FfVdrcTSVQScXGL9XQu8UYCaplP1bZxiHraP7pr_d-kG4qAxTaQtIJJk3BsEktX_DUE_xQNiVSYLupyfMzejUsmZGddXem0zjmEFfPFpwS1DN0TkM12hnfWkasMilNhjy9QVCRoGdSRqURrWj9hQhm9_B2txjSABIfji1JgQJMKA78xMqjgbhYhrkjK1hPW2yZlUqKSqAh0GmtkIMk1aBRLWf60pkpwJKNj4zKOxztbEqgepl5xxNKXbHQnfsvmxi6J0Gt4gC2-X7FSevXNxFCgej5rov-hzAGPfarBhZqWhoHi7Kt8uCBmeDboIgNlkbQ7vAzDb9KLkGVKMCvZ8XRDbddaitrBzcm1HuV_s6Ou8RYYVeB]--></g></svg>