<?xml version="1.0" encoding="us-ascii" standalone="no"?><svg xmlns="http://www.w3.org/2000/svg" xmlns:xlink="http://www.w3.org/1999/xlink" contentStyleType="text/css" height="932px" preserveAspectRatio="none" style="width:851px;height:932px;background:#FFFFFF;" version="1.1" viewBox="0 0 851 932" width="851px" zoomAndPan="magnify"><defs/><g><rect fill="none" height="406.5703" style="stroke:#000000;stroke-width:1.5;" width="334.5" x="175.5" y="398.5938"/><rect fill="none" height="74.5762" style="stroke:#000000;stroke-width:1.5;" width="121.5" x="378.5" y="723.5879"/><line style="stroke:#181818;stroke-width:0.5;stroke-dasharray:5.0,5.0;" x1="38" x2="38" y1="81.4883" y2="851.4746"/><line style="stroke:#181818;stroke-width:0.5;stroke-dasharray:5.0,5.0;" x1="209.5" x2="209.5" y1="81.4883" y2="851.4746"/><line style="stroke:#181818;stroke-width:0.5;stroke-dasharray:5.0,5.0;" x1="337.5" x2="337.5" y1="81.4883" y2="851.4746"/><line style="stroke:#181818;stroke-width:0.5;stroke-dasharray:5.0,5.0;" x1="428.5" x2="428.5" y1="81.4883" y2="851.4746"/><line style="stroke:#181818;stroke-width:0.5;stroke-dasharray:5.0,5.0;" x1="602.5" x2="602.5" y1="81.4883" y2="851.4746"/><line style="stroke:#181818;stroke-width:0.5;stroke-dasharray:5.0,5.0;" x1="748.5" x2="748.5" y1="81.4883" y2="851.4746"/><text fill="#000000" font-family="sans-serif" font-size="14" lengthAdjust="spacing" textLength="31" x="20" y="78.5352">User</text><ellipse cx="38.5" cy="13.5" fill="#E2E2F0" rx="8" ry="8" style="stroke:#181818;stroke-width:0.5;"/><path d="M38.5,21.5 L38.5,48.5 M25.5,29.5 L51.5,29.5 M38.5,48.5 L25.5,63.5 M38.5,48.5 L51.5,63.5 " fill="none" style="stroke:#181818;stroke-width:0.5;"/><text fill="#000000" font-family="sans-serif" font-size="14" lengthAdjust="spacing" textLength="31" x="20" y="864.0098">User</text><ellipse cx="38.5" cy="875.4629" fill="#E2E2F0" rx="8" ry="8" style="stroke:#181818;stroke-width:0.5;"/><path d="M38.5,883.4629 L38.5,910.4629 M25.5,891.4629 L51.5,891.4629 M38.5,910.4629 L25.5,925.4629 M38.5,910.4629 L51.5,925.4629 " fill="none" style="stroke:#181818;stroke-width:0.5;"/><rect fill="#E2E2F0" height="30.4883" rx="2.5" ry="2.5" style="stroke:#181818;stroke-width:0.5;" width="48" x="185.5" y="50"/><text fill="#000000" font-family="sans-serif" font-size="14" lengthAdjust="spacing" textLength="34" x="192.5" y="70.5352">main</text><rect fill="#E2E2F0" height="30.4883" rx="2.5" ry="2.5" style="stroke:#181818;stroke-width:0.5;" width="48" x="185.5" y="850.4746"/><text fill="#000000" font-family="sans-serif" font-size="14" lengthAdjust="spacing" textLength="34" x="192.5" y="871.0098">main</text><rect fill="#E2E2F0" height="30.4883" rx="2.5" ry="2.5" style="stroke:#181818;stroke-width:0.5;" width="82" x="296.5" y="50"/><text fill="#000000" font-family="sans-serif" font-size="14" lengthAdjust="spacing" textLength="68" x="303.5" y="70.5352">ArgParser</text><rect fill="#E2E2F0" height="30.4883" rx="2.5" ry="2.5" style="stroke:#181818;stroke-width:0.5;" width="82" x="296.5" y="850.4746"/><text fill="#000000" font-family="sans-serif" font-size="14" lengthAdjust="spacing" textLength="68" x="303.5" y="871.0098">ArgParser</text><rect fill="#E2E2F0" height="30.4883" rx="2.5" ry="2.5" style="stroke:#181818;stroke-width:0.5;" width="81" x="388.5" y="50"/><text fill="#000000" font-family="sans-serif" font-size="14" lengthAdjust="spacing" textLength="67" x="395.5" y="70.5352">Automata</text><rect fill="#E2E2F0" height="30.4883" rx="2.5" ry="2.5" style="stroke:#181818;stroke-width:0.5;" width="81" x="388.5" y="850.4746"/><text fill="#000000" font-family="sans-serif" font-size="14" lengthAdjust="spacing" textLength="67" x="395.5" y="871.0098">Automata</text><rect fill="#E2E2F0" height="30.4883" rx="2.5" ry="2.5" style="stroke:#181818;stroke-width:0.5;" width="77" x="564.5" y="50"/><text fill="#000000" font-family="sans-serif" font-size="14" lengthAdjust="spacing" textLength="63" x="571.5" y="70.5352">IPostman</text><rect fill="#E2E2F0" height="30.4883" rx="2.5" ry="2.5" style="stroke:#181818;stroke-width:0.5;" width="77" x="564.5" y="850.4746"/><text fill="#000000" font-family="sans-serif" font-size="14" lengthAdjust="spacing" textLength="63" x="571.5" y="871.0098">IPostman</text><rect fill="#E2E2F0" height="30.4883" rx="2.5" ry="2.5" style="stroke:#181818;stroke-width:0.5;" width="194" x="651.5" y="50"/><text fill="#000000" font-family="sans-serif" font-size="14" lengthAdjust="spacing" textLength="180" x="658.5" y="70.5352">UDPPostman/TCPPostman</text><rect fill="#E2E2F0" height="30.4883" rx="2.5" ry="2.5" style="stroke:#181818;stroke-width:0.5;" width="194" x="651.5" y="850.4746"/><text fill="#000000" font-family="sans-serif" font-size="14" lengthAdjust="spacing" textLength="180" x="658.5" y="871.0098">UDPPostman/TCPPostman</text><polygon fill="#181818" points="197.5,108.7988,207.5,112.7988,197.5,116.7988,201.5,112.7988" style="stroke:#181818;stroke-width:1.0;"/><line style="stroke:#181818;stroke-width:1.0;" x1="38.5" x2="203.5" y1="112.7988" y2="112.7988"/><text fill="#000000" font-family="sans-serif" font-size="13" lengthAdjust="spacing" textLength="106" x="45.5" y="108.0566">Execute program</text><polygon fill="#181818" points="325.5,138.1094,335.5,142.1094,325.5,146.1094,329.5,142.1094" style="stroke:#181818;stroke-width:1.0;"/><line style="stroke:#181818;stroke-width:1.0;" x1="209.5" x2="331.5" y1="142.1094" y2="142.1094"/><text fill="#000000" font-family="sans-serif" font-size="13" lengthAdjust="spacing" textLength="104" x="216.5" y="137.3672">parse(argc, argv)</text><polygon fill="#181818" points="220.5,167.4199,210.5,171.4199,220.5,175.4199,216.5,171.4199" style="stroke:#181818;stroke-width:1.0;"/><line style="stroke:#181818;stroke-width:1.0;" x1="214.5" x2="336.5" y1="171.4199" y2="171.4199"/><text fill="#000000" font-family="sans-serif" font-size="13" lengthAdjust="spacing" textLength="29" x="226.5" y="166.6777">Args</text><polygon fill="#181818" points="417,196.7305,427,200.7305,417,204.7305,421,200.7305" style="stroke:#181818;stroke-width:1.0;"/><line style="stroke:#181818;stroke-width:1.0;" x1="209.5" x2="423" y1="200.7305" y2="200.7305"/><text fill="#000000" font-family="sans-serif" font-size="13" lengthAdjust="spacing" textLength="125" x="216.5" y="195.9883">new Automata(args)</text><polygon fill="#181818" points="736.5,241.3516,746.5,245.3516,736.5,249.3516,740.5,245.3516" style="stroke:#181818;stroke-width:1.0;"/><line style="stroke:#181818;stroke-width:1.0;" x1="429" x2="742.5" y1="245.3516" y2="245.3516"/><text fill="#000000" font-family="sans-serif" font-size="13" lengthAdjust="spacing" textLength="144" x="436" y="225.2988">new UDPPostman(args)</text><text fill="#000000" font-family="sans-serif" font-size="13" lengthAdjust="spacing" textLength="159" x="440" y="240.6094">or new TCPPostman(args)</text><polygon fill="#181818" points="736.5,270.6621,746.5,274.6621,736.5,278.6621,740.5,274.6621" style="stroke:#181818;stroke-width:1.0;"/><line style="stroke:#181818;stroke-width:1.0;" x1="429" x2="742.5" y1="274.6621" y2="274.6621"/><text fill="#000000" font-family="sans-serif" font-size="13" lengthAdjust="spacing" textLength="270" x="436" y="269.9199">attach_to_server(args.hostname, args.port)</text><line style="stroke:#181818;stroke-width:1.0;" x1="429" x2="471" y1="303.9727" y2="303.9727"/><line style="stroke:#181818;stroke-width:1.0;" x1="471" x2="471" y1="303.9727" y2="316.9727"/><line style="stroke:#181818;stroke-width:1.0;" x1="430" x2="471" y1="316.9727" y2="316.9727"/><polygon fill="#181818" points="440,312.9727,430,316.9727,440,320.9727,436,316.9727" style="stroke:#181818;stroke-width:1.0;"/><text fill="#000000" font-family="sans-serif" font-size="13" lengthAdjust="spacing" textLength="160" x="436" y="299.2305">Set initial state (S_START)</text><line style="stroke:#181818;stroke-width:1.0;" x1="429" x2="471" y1="370.5938" y2="370.5938"/><line style="stroke:#181818;stroke-width:1.0;" x1="471" x2="471" y1="370.5938" y2="383.5938"/><line style="stroke:#181818;stroke-width:1.0;" x1="430" x2="471" y1="383.5938" y2="383.5938"/><polygon fill="#181818" points="440,379.5938,430,383.5938,440,387.5938,436,383.5938" style="stroke:#181818;stroke-width:1.0;"/><text fill="#000000" font-family="sans-serif" font-size="13" lengthAdjust="spacing" textLength="29" x="436" y="365.8516">run()</text><path d="M175.5,398.5938 L237.5,398.5938 L237.5,405.9043 L227.5,415.9043 L175.5,415.9043 L175.5,398.5938 " fill="#EEEEEE" style="stroke:#000000;stroke-width:1.5;"/><rect fill="none" height="406.5703" style="stroke:#000000;stroke-width:1.5;" width="334.5" x="175.5" y="398.5938"/><text fill="#000000" font-family="sans-serif" font-size="13" font-weight="bold" lengthAdjust="spacing" textLength="17" x="190.5" y="412.1621">alt</text><text fill="#000000" font-family="sans-serif" font-size="11" font-weight="bold" lengthAdjust="spacing" textLength="58" x="252.5" y="411.2285">[S_START]</text><line style="stroke:#181818;stroke-width:1.0;" x1="429" x2="471" y1="437.2148" y2="437.2148"/><line style="stroke:#181818;stroke-width:1.0;" x1="471" x2="471" y1="437.2148" y2="450.2148"/><line style="stroke:#181818;stroke-width:1.0;" x1="430" x2="471" y1="450.2148" y2="450.2148"/><polygon fill="#181818" points="440,446.2148,430,450.2148,440,454.2148,436,450.2148" style="stroke:#181818;stroke-width:1.0;"/><text fill="#000000" font-family="sans-serif" font-size="13" lengthAdjust="spacing" textLength="51" x="436" y="432.4727">s_start()</text><line style="stroke:#000000;stroke-width:1.0;stroke-dasharray:2.0,2.0;" x1="175.5" x2="510" y1="459.2148" y2="459.2148"/><text fill="#000000" font-family="sans-serif" font-size="11" font-weight="bold" lengthAdjust="spacing" textLength="53" x="180.5" y="469.8496">[S_AUTH]</text><line style="stroke:#181818;stroke-width:1.0;" x1="429" x2="471" y1="494.4805" y2="494.4805"/><line style="stroke:#181818;stroke-width:1.0;" x1="471" x2="471" y1="494.4805" y2="507.4805"/><line style="stroke:#181818;stroke-width:1.0;" x1="430" x2="471" y1="507.4805" y2="507.4805"/><polygon fill="#181818" points="440,503.4805,430,507.4805,440,511.4805,436,507.4805" style="stroke:#181818;stroke-width:1.0;"/><text fill="#000000" font-family="sans-serif" font-size="13" lengthAdjust="spacing" textLength="50" x="436" y="489.7383">s_auth()</text><line style="stroke:#000000;stroke-width:1.0;stroke-dasharray:2.0,2.0;" x1="175.5" x2="510" y1="516.4805" y2="516.4805"/><text fill="#000000" font-family="sans-serif" font-size="11" font-weight="bold" lengthAdjust="spacing" textLength="51" x="180.5" y="527.1152">[S_OPEN]</text><line style="stroke:#181818;stroke-width:1.0;" x1="429" x2="471" y1="551.7461" y2="551.7461"/><line style="stroke:#181818;stroke-width:1.0;" x1="471" x2="471" y1="551.7461" y2="564.7461"/><line style="stroke:#181818;stroke-width:1.0;" x1="430" x2="471" y1="564.7461" y2="564.7461"/><polygon fill="#181818" points="440,560.7461,430,564.7461,440,568.7461,436,564.7461" style="stroke:#181818;stroke-width:1.0;"/><text fill="#000000" font-family="sans-serif" font-size="13" lengthAdjust="spacing" textLength="53" x="436" y="547.0039">s_open()</text><line style="stroke:#000000;stroke-width:1.0;stroke-dasharray:2.0,2.0;" x1="175.5" x2="510" y1="573.7461" y2="573.7461"/><text fill="#000000" font-family="sans-serif" font-size="11" font-weight="bold" lengthAdjust="spacing" textLength="60" x="180.5" y="584.3809">[S_ERROR]</text><line style="stroke:#181818;stroke-width:1.0;" x1="429" x2="471" y1="609.0117" y2="609.0117"/><line style="stroke:#181818;stroke-width:1.0;" x1="471" x2="471" y1="609.0117" y2="622.0117"/><line style="stroke:#181818;stroke-width:1.0;" x1="430" x2="471" y1="622.0117" y2="622.0117"/><polygon fill="#181818" points="440,618.0117,430,622.0117,440,626.0117,436,622.0117" style="stroke:#181818;stroke-width:1.0;"/><text fill="#000000" font-family="sans-serif" font-size="13" lengthAdjust="spacing" textLength="52" x="436" y="604.2695">s_error()</text><line style="stroke:#000000;stroke-width:1.0;stroke-dasharray:2.0,2.0;" x1="175.5" x2="510" y1="631.0117" y2="631.0117"/><text fill="#000000" font-family="sans-serif" font-size="11" font-weight="bold" lengthAdjust="spacing" textLength="44" x="180.5" y="641.6465">[S_END]</text><line style="stroke:#181818;stroke-width:1.0;" x1="429" x2="471" y1="666.2773" y2="666.2773"/><line style="stroke:#181818;stroke-width:1.0;" x1="471" x2="471" y1="666.2773" y2="679.2773"/><line style="stroke:#181818;stroke-width:1.0;" x1="430" x2="471" y1="679.2773" y2="679.2773"/><polygon fill="#181818" points="440,675.2773,430,679.2773,440,683.2773,436,679.2773" style="stroke:#181818;stroke-width:1.0;"/><text fill="#000000" font-family="sans-serif" font-size="13" lengthAdjust="spacing" textLength="45" x="436" y="661.5352">s_end()</text><polygon fill="#181818" points="220.5,704.5879,210.5,708.5879,220.5,712.5879,216.5,708.5879" style="stroke:#181818;stroke-width:1.0;"/><line style="stroke:#181818;stroke-width:1.0;" x1="214.5" x2="428" y1="708.5879" y2="708.5879"/><text fill="#000000" font-family="sans-serif" font-size="13" lengthAdjust="spacing" textLength="96" x="226.5" y="703.8457">return ret_code</text><path d="M378.5,723.5879 L462.5,723.5879 L462.5,730.8984 L452.5,740.8984 L378.5,740.8984 L378.5,723.5879 " fill="#EEEEEE" style="stroke:#000000;stroke-width:1.5;"/><rect fill="none" height="74.5762" style="stroke:#000000;stroke-width:1.5;" width="121.5" x="378.5" y="723.5879"/><text fill="#000000" font-family="sans-serif" font-size="13" font-weight="bold" lengthAdjust="spacing" textLength="39" x="393.5" y="737.1563">break</text><line style="stroke:#000000;stroke-width:1.0;stroke-dasharray:2.0,2.0;" x1="378.5" x2="500" y1="741.8984" y2="741.8984"/><text fill="#000000" font-family="sans-serif" font-size="11" font-weight="bold" lengthAdjust="spacing" textLength="47" x="383.5" y="752.5332">[default]</text><line style="stroke:#181818;stroke-width:1.0;" x1="429" x2="471" y1="777.1641" y2="777.1641"/><line style="stroke:#181818;stroke-width:1.0;" x1="471" x2="471" y1="777.1641" y2="790.1641"/><line style="stroke:#181818;stroke-width:1.0;" x1="430" x2="471" y1="790.1641" y2="790.1641"/><polygon fill="#181818" points="440,786.1641,430,790.1641,440,794.1641,436,790.1641" style="stroke:#181818;stroke-width:1.0;"/><text fill="#000000" font-family="sans-serif" font-size="13" lengthAdjust="spacing" textLength="52" x="436" y="772.4219">s_error()</text><polygon fill="#181818" points="49.5,829.4746,39.5,833.4746,49.5,837.4746,45.5,833.4746" style="stroke:#181818;stroke-width:1.0;"/><line style="stroke:#181818;stroke-width:1.0;" x1="43.5" x2="208.5" y1="833.4746" y2="833.4746"/><text fill="#000000" font-family="sans-serif" font-size="13" lengthAdjust="spacing" textLength="147" x="55.5" y="828.7324">Exit program (ret_code)</text><!--SRC=[bP9DJuD048Rl_8g99qYqtdimQIn63sq97pSJCiBQ4c6Np0wrFzzTFgLHYIImpBxlC_D25ZDM18aMvDH8N6H5ZPBXfi92tW1gs9cNkRIXOu1aY5OVgojJmwf2nixJ5tFBIw0qLzYD6Ogv9Ta6_Vvz_1XyzmzsnqQ7kuSsvnhyYyWQ5b2JEX9MZjsrwfXo3RLTNQHZTWlcUVQSKPpwc2qzmNtyDKZnELQsXJPmNrfZ7whpJTaxvwi4ywUjCdtANpsG6RDJoYeroSw2Mk_gP6I9bMYpwrMjYEVy53OI38KikC0IDAFvAswKHl4cZ3t7APMguSdA0g9Mt9bfXHGEcEldXjH8rsjrB1dwNctzEwDJCvguvqIfpRXqayJFYnmsV9fZXy3VBsAg5dAE-M5u21SvGQJe2jnlbp6Pzz2rgpj89BWXQPSqKxaOdMyay6CQbejtR4h-NqgPE_OUpsdIdc__Kl1m_i4T1djV]--></g></svg>